<?xml version="1.0" encoding="iso-8859-1"?>
<!-- Uploaded to: SVG Repo, www.svgrepo.com, Generator: SVG Repo Mixer Tools -->
<svg version="1.1" id="Layer_1" xmlns="http://www.w3.org/2000/svg" xmlns:xlink="http://www.w3.org/1999/xlink" 
	 viewBox="0 0 512 512" xml:space="preserve">
<path style="fill:#FDD042;" d="M324.267,435.2c-9.425,0-17.067,7.641-17.067,17.067c0,9.41-7.657,17.067-17.067,17.067
	s-17.067-7.657-17.067-17.067V25.6c0-9.426-7.642-17.067-17.067-17.067c-9.425,0-17.067,7.641-17.067,17.067v426.667
	c0,28.232,22.969,51.2,51.2,51.2c28.231,0,51.2-22.969,51.2-51.2C341.333,442.841,333.692,435.2,324.267,435.2z"/>
<rect x="238.933" y="68.8" style="fill:#E1A527;" width="34.133" height="264"/>
<path style="fill:#F58F6C;" d="M437.02,126.181C388.667,77.829,324.38,51.2,256,51.2S123.333,77.829,74.98,126.181
	C26.628,174.532,0,238.82,0,307.2c0,5.606,5.573,9.783,10.965,8.179c7.65-2.275,29.791-8.179,40.235-8.179
	c11.194,0,31.948,4.525,37.161,6.496c2.722,2.318,6.709,2.682,9.805,0.892c13.539-7.826,37.975-15.921,55.435-15.921
	c15.285,0,39.129,11.527,47.022,15.967c2.514,1.419,5.642,1.432,8.201,0.099c14.451-7.531,30.83-16.066,47.178-16.066
	s32.726,8.535,47.245,16.101c2.559,1.334,5.619,1.283,8.133-0.134c7.879-4.441,31.686-15.967,47.022-15.967
	c17.459,0,41.895,8.095,55.435,15.921c3.093,1.79,7.084,1.425,9.805-0.892c5.213-1.971,25.968-6.496,37.161-6.496
	c10.426,0,32.579,5.904,40.235,8.179C506.42,316.981,512,312.809,512,307.2C512,238.82,485.372,174.532,437.02,126.181z"/>
<g>
	<path style="fill:#CF442B;" d="M298.667,179.2c-10.471-53.545-27.582-96.799-42.667-128c-15.085,31.201-32.195,74.455-42.667,128
		c-10.642,54.417-10.94,101.626-8.574,136.533c1.371,0.009,2.743-0.313,3.996-0.965c14.518-7.566,30.897-16.101,47.245-16.101
		s32.726,8.535,47.245,16.101c1.252,0.653,2.626,0.975,3.996,0.965C309.606,280.826,309.309,233.617,298.667,179.2z"/>
	<path style="fill:#CF442B;" d="M256,51.2c25.815,14.903,80.045,50.885,119.467,119.467
		c34.283,59.642,41.143,115.714,42.667,145.051c0.678-0.002,1.723-0.087,2.912-0.518c0.934-0.338,1.815-0.842,2.594-1.504
		c5.213-1.971,25.968-6.496,37.161-6.496c10.426,0,32.579,5.904,40.235,8.179c5.386,1.602,10.965-2.571,10.965-8.179
		c0-68.38-26.628-132.668-74.98-181.019C388.667,77.829,324.38,51.2,256,51.2z"/>
	<path style="fill:#CF442B;" d="M256,51.2c-25.815,14.903-80.045,50.885-119.467,119.467
		c-34.283,59.642-41.143,115.714-42.667,145.051c-0.678-0.002-1.723-0.087-2.912-0.518c-0.934-0.338-1.815-0.842-2.594-1.504
		c-5.213-1.97-25.967-6.495-37.161-6.495c-10.426,0-32.579,5.904-40.235,8.179C5.58,316.981,0,312.809,0,307.2
		c0-68.38,26.628-132.668,74.98-181.019C123.333,77.829,187.62,51.2,256,51.2z"/>
</g>
</svg>